<svg width="30" height="30" viewBox="0 0 30 30" fill="none" xmlns="http://www.w3.org/2000/svg">
<path d="M26.6027 8.87804L28.2616 8.00024C27.9496 7.41065 27.599 6.84236 27.212 6.29907L25.6826 7.38906C26.0221 7.86434 26.3295 8.36175 26.6027 8.87804Z" fill="white"/>
<path d="M24.5735 6.03465L25.9433 4.75126C25.4869 4.26465 24.9992 3.80832 24.4834 3.38525L23.293 4.83763C23.7455 5.2083 24.1732 5.60813 24.5735 6.03465Z" fill="white"/>
<path d="M29.0783 9.82928H29.0764L27.3152 10.4761C29.8239 17.2923 26.332 24.8517 19.5158 27.3604C12.6996 29.8691 5.14027 26.3772 2.63158 19.5609C0.1229 12.7447 3.61478 5.18545 10.431 2.67671C14.2176 1.28307 18.4343 1.70478 21.87 3.82068L22.8567 2.22466C15.8011 -2.11446 6.56378 0.0876939 2.22466 7.14333C-2.11446 14.199 0.0876939 23.4362 7.14333 27.7753C14.199 32.1145 23.4362 29.9123 27.7753 22.8567C30.1822 18.9431 30.6624 14.1421 29.0783 9.82928Z" fill="white"/>
<path d="M18.7295 15.0126C20.8035 15.0126 22.4849 13.3313 22.4849 11.2573C22.4849 9.18329 20.8035 7.50195 18.7295 7.50195H12.1577V13.135H8.40234V15.0126H12.1577V16.8903H8.40234V18.768H12.1577V22.5233H14.0354V18.768H17.7907V16.8903H14.0354V15.0126H18.7295ZM14.0354 9.37962H18.7295C19.7665 9.37962 20.6072 10.2203 20.6072 11.2573C20.6072 12.2943 19.7665 13.135 18.7295 13.135H14.0354V9.37962Z" fill="white"/>
</svg>