<svg width="30" height="30" viewBox="0 0 30 30" fill="none" xmlns="http://www.w3.org/2000/svg">
<path d="M29.9553 28.8458L28.4938 24.4125C29.3832 23.9883 29.9995 23.0805 29.9995 22.0313C29.9995 20.8855 29.2647 19.9086 28.2417 19.5458V9.38844L29.5124 8.75575C29.8104 8.60739 29.999 8.30335 29.9995 7.97042C30.0001 7.63749 29.8125 7.33286 29.515 7.18351L15.3941 0.0937938C15.1459 -0.0307763 14.8535 -0.0307763 14.6053 0.0937938L0.484571 7.18351C0.187032 7.33286 -0.000526234 7.63755 1.10911e-06 7.97042C0.000528452 8.30329 0.1892 8.60739 0.487207 8.75575L5.27343 11.1389V16.7579C5.27343 17.0104 5.38206 17.2507 5.57155 17.4176C5.74481 17.5701 9.87303 21.1523 14.9998 21.1523C20.1266 21.1523 24.2548 17.5701 24.428 17.4176C24.6176 17.2507 24.7262 17.0104 24.7262 16.7579V11.1389L26.4839 10.2637V19.5457C25.4609 19.9085 24.7262 20.8855 24.7262 22.0312C24.7262 23.0805 25.3424 23.9883 26.2318 24.4124L24.7703 28.8458C24.5829 29.4144 25.0076 29.9999 25.6051 29.9999H29.1206C29.7193 29.9998 30.1423 29.4131 29.9553 28.8458ZM22.9684 16.3396C21.9897 17.101 18.7312 19.3946 14.9998 19.3946C11.2678 19.3946 8.00887 17.1004 7.03118 16.3398V12.0142L14.608 15.7869C14.7314 15.8483 14.8656 15.8791 14.9998 15.8791C15.134 15.8791 15.2682 15.8484 15.3916 15.7869L22.9684 12.0142V16.3396H22.9684ZM14.9998 14.0183L2.84419 7.96573L14.9998 1.86274L27.1553 7.96573L14.9998 14.0183ZM26.8202 28.2421L27.3628 26.5961L27.9055 28.2421H26.8202ZM27.3628 22.9102C26.8782 22.9102 26.4839 22.5159 26.4839 22.0313C26.4839 21.5466 26.8782 21.1523 27.3628 21.1523C27.8475 21.1523 28.2417 21.5466 28.2417 22.0313C28.2417 22.5159 27.8475 22.9102 27.3628 22.9102Z" fill="white"/>
</svg>